<?xml version="1.0" encoding="UTF-8" standalone="no"?>
<!DOCTYPE svg PUBLIC "-//W3C//DTD SVG 1.1//EN" "http://www.w3.org/Graphics/SVG/1.1/DTD/svg11.dtd">
<svg width="100%" height="100%" viewBox="0 0 44 66" version="1.1" xmlns="http://www.w3.org/2000/svg" xmlns:xlink="http://www.w3.org/1999/xlink" xml:space="preserve" style="fill-rule:evenodd;clip-rule:evenodd;stroke-linejoin:round;stroke-miterlimit:1.41421;">
    <g transform="matrix(1,0,0,1,-314.134,-585.537)">
        <path d="M357.597,607.268C357.597,619.27 335.866,650.668 335.866,650.668C335.866,652.198 314.134,619.27 314.134,607.268C314.134,595.266 323.864,585.537 335.866,585.537C347.868,585.537 357.597,595.266 357.597,607.268" style="fill:rgb(100,226,145);fill-rule:nonzero;"/>
        <path d="M343.042,601.391C342.776,602.189 342.327,602.904 341.696,603.535L339.689,605.542L341.683,614.218C341.724,614.376 341.674,614.513 341.533,614.63L339.938,615.826C339.88,615.876 339.8,615.901 339.701,615.901C339.668,615.901 339.639,615.897 339.614,615.888C339.489,615.864 339.402,615.797 339.352,615.689L335.874,609.357L332.645,612.585L333.306,615.003C333.348,615.145 333.314,615.273 333.206,615.39L332.01,616.586C331.935,616.661 331.839,616.699 331.723,616.699L331.698,616.699C331.574,616.682 331.474,616.629 331.399,616.537L329.043,613.395L325.902,611.039C325.81,610.981 325.756,610.886 325.74,610.753C325.731,610.644 325.769,610.541 325.852,610.441L327.048,609.232C327.123,609.157 327.219,609.12 327.335,609.12C327.385,609.12 327.418,609.124 327.435,609.132L329.853,609.793L333.082,606.565L326.749,603.086C326.633,603.02 326.562,602.92 326.537,602.787C326.521,602.654 326.558,602.542 326.65,602.45L328.245,600.855C328.361,600.747 328.486,600.714 328.619,600.756L336.909,602.737L338.903,600.743C339.535,600.111 340.25,599.663 341.047,599.396C341.845,599.131 342.46,599.181 342.892,599.546C343.257,599.978 343.308,600.593 343.042,601.391M335.866,590.319C326.505,590.319 318.917,597.907 318.917,607.268C318.917,616.629 326.505,624.217 335.866,624.217C345.227,624.217 352.815,616.629 352.815,607.268C352.815,597.907 345.227,590.319 335.866,590.319" style="fill:white;fill-rule:nonzero;"/>
    </g>
</svg>
