<?xml version="1.0" encoding="UTF-8" standalone="no"?>
<!DOCTYPE svg PUBLIC "-//W3C//DTD SVG 1.1//EN" "http://www.w3.org/Graphics/SVG/1.1/DTD/svg11.dtd">
<svg width="100%" height="100%" viewBox="0 0 44 66" version="1.1" xmlns="http://www.w3.org/2000/svg" xmlns:xlink="http://www.w3.org/1999/xlink" xml:space="preserve" style="fill-rule:evenodd;clip-rule:evenodd;stroke-linejoin:round;stroke-miterlimit:1.41421;">
    <g transform="matrix(1,0,0,1,-314.134,-445.537)">
        <path d="M357.597,467.268C357.597,479.27 335.866,510.668 335.866,510.668C335.866,512.198 314.134,479.27 314.134,467.268C314.134,455.266 323.864,445.537 335.866,445.537C347.868,445.537 357.597,455.266 357.597,467.268" style="fill:rgb(249,156,33);fill-rule:nonzero;"/>
        <path d="M343.042,461.391C342.776,462.189 342.327,462.904 341.696,463.535L339.689,465.542L341.683,474.218C341.724,474.376 341.674,474.513 341.533,474.63L339.938,475.826C339.88,475.876 339.8,475.901 339.701,475.901C339.668,475.901 339.639,475.897 339.614,475.888C339.489,475.864 339.402,475.797 339.352,475.689L335.874,469.357L332.645,472.585L333.306,475.003C333.348,475.145 333.314,475.273 333.206,475.39L332.01,476.586C331.935,476.661 331.839,476.699 331.723,476.699L331.698,476.699C331.574,476.682 331.474,476.629 331.399,476.537L329.043,473.395L325.902,471.039C325.81,470.981 325.756,470.886 325.74,470.753C325.731,470.644 325.769,470.541 325.852,470.441L327.048,469.232C327.123,469.157 327.219,469.12 327.335,469.12C327.385,469.12 327.418,469.124 327.435,469.132L329.853,469.793L333.082,466.565L326.749,463.086C326.633,463.02 326.562,462.92 326.537,462.787C326.521,462.654 326.558,462.542 326.65,462.45L328.245,460.855C328.361,460.747 328.486,460.714 328.619,460.756L336.909,462.737L338.903,460.743C339.535,460.111 340.25,459.663 341.047,459.396C341.845,459.131 342.46,459.181 342.892,459.546C343.257,459.978 343.308,460.593 343.042,461.391M335.866,450.319C326.505,450.319 318.917,457.907 318.917,467.268C318.917,476.629 326.505,484.217 335.866,484.217C345.227,484.217 352.815,476.629 352.815,467.268C352.815,457.907 345.227,450.319 335.866,450.319" style="fill:white;fill-rule:nonzero;"/>
    </g>
</svg>
