<?xml version="1.0" encoding="UTF-8" standalone="no"?>
<!DOCTYPE svg PUBLIC "-//W3C//DTD SVG 1.1//EN" "http://www.w3.org/Graphics/SVG/1.1/DTD/svg11.dtd">
<svg width="100%" height="100%" viewBox="0 0 44 66" version="1.1" xmlns="http://www.w3.org/2000/svg" xmlns:xlink="http://www.w3.org/1999/xlink" xml:space="preserve" style="fill-rule:evenodd;clip-rule:evenodd;stroke-linejoin:round;stroke-miterlimit:1.41421;">
    <g transform="matrix(1,0,0,1,-314.134,-305.537)">
        <path d="M357.597,327.268C357.597,339.27 335.866,370.668 335.866,370.668C335.866,372.198 314.134,339.27 314.134,327.268C314.134,315.266 323.864,305.537 335.866,305.537C347.868,305.537 357.597,315.266 357.597,327.268" style="fill:rgb(234,66,95);fill-rule:nonzero;"/>
        <path d="M343.042,321.391C342.776,322.189 342.327,322.904 341.696,323.535L339.689,325.542L341.683,334.218C341.724,334.376 341.674,334.513 341.533,334.63L339.938,335.826C339.88,335.876 339.8,335.901 339.701,335.901C339.668,335.901 339.639,335.897 339.614,335.888C339.489,335.864 339.402,335.797 339.352,335.689L335.874,329.357L332.645,332.585L333.306,335.003C333.348,335.145 333.314,335.273 333.206,335.39L332.01,336.586C331.935,336.661 331.839,336.699 331.723,336.699L331.698,336.699C331.574,336.682 331.474,336.629 331.399,336.537L329.043,333.395L325.902,331.039C325.81,330.981 325.756,330.886 325.74,330.753C325.731,330.644 325.769,330.541 325.852,330.441L327.048,329.232C327.123,329.157 327.219,329.12 327.335,329.12C327.385,329.12 327.418,329.124 327.435,329.132L329.853,329.793L333.082,326.565L326.749,323.086C326.633,323.02 326.562,322.92 326.537,322.787C326.521,322.654 326.558,322.542 326.65,322.45L328.245,320.855C328.361,320.747 328.486,320.714 328.619,320.756L336.909,322.737L338.903,320.743C339.535,320.111 340.25,319.663 341.047,319.396C341.845,319.131 342.46,319.181 342.892,319.546C343.257,319.978 343.308,320.593 343.042,321.391M335.866,310.319C326.505,310.319 318.917,317.907 318.917,327.268C318.917,336.629 326.505,344.217 335.866,344.217C345.227,344.217 352.815,336.629 352.815,327.268C352.815,317.907 345.227,310.319 335.866,310.319" style="fill:white;fill-rule:nonzero;"/>
    </g>
</svg>
