<?xml version="1.0" encoding="UTF-8" standalone="no"?>
<!DOCTYPE svg PUBLIC "-//W3C//DTD SVG 1.1//EN" "http://www.w3.org/Graphics/SVG/1.1/DTD/svg11.dtd">
<svg width="100%" height="100%" viewBox="0 0 44 66" version="1.1" xmlns="http://www.w3.org/2000/svg" xmlns:xlink="http://www.w3.org/1999/xlink" xml:space="preserve" style="fill-rule:evenodd;clip-rule:evenodd;stroke-linejoin:round;stroke-miterlimit:1.41421;">
    <g transform="matrix(1,0,0,1,-85.0412,-305.537)">
        <path d="M128.504,327.268C128.504,339.27 106.773,370.668 106.773,370.668C106.773,372.198 85.041,339.27 85.041,327.268C85.041,315.266 94.771,305.537 106.773,305.537C118.775,305.537 128.504,315.266 128.504,327.268" style="fill:rgb(234,66,95);fill-rule:nonzero;"/>
        <path d="M107.49,332.971L107.49,336.445L105.718,336.445L105.718,332.971L99.518,332.971L102.568,327.687L101.289,327.687L104.34,322.402L103.061,322.402L106.604,316.265L110.147,322.402L108.868,322.402L111.919,327.687L110.64,327.687L113.691,332.971L107.49,332.971ZM106.773,310.319C97.412,310.319 89.824,317.908 89.824,327.269C89.824,336.629 97.412,344.218 106.773,344.218C116.134,344.218 123.722,336.629 123.722,327.269C123.722,317.908 116.134,310.319 106.773,310.319" style="fill:white;fill-rule:nonzero;"/>
    </g>
</svg>
