<?xml version="1.0" encoding="UTF-8" standalone="no"?>
<!DOCTYPE svg PUBLIC "-//W3C//DTD SVG 1.1//EN" "http://www.w3.org/Graphics/SVG/1.1/DTD/svg11.dtd">
<svg width="100%" height="100%" viewBox="0 0 44 66" version="1.1" xmlns="http://www.w3.org/2000/svg" xmlns:xlink="http://www.w3.org/1999/xlink" xml:space="preserve" style="fill-rule:evenodd;clip-rule:evenodd;stroke-linejoin:round;stroke-miterlimit:1.41421;">
    <g transform="matrix(1,0,0,1,-85.0412,-585.537)">
        <path d="M128.504,607.268C128.504,619.27 106.773,650.668 106.773,650.668C106.773,652.198 85.041,619.27 85.041,607.268C85.041,595.266 94.771,585.537 106.773,585.537C118.775,585.537 128.504,595.266 128.504,607.268" style="fill:rgb(100,226,145);fill-rule:nonzero;"/>
        <path d="M107.49,612.971L107.49,616.445L105.718,616.445L105.718,612.971L99.518,612.971L102.568,607.687L101.289,607.687L104.34,602.402L103.061,602.402L106.604,596.265L110.147,602.402L108.868,602.402L111.919,607.687L110.64,607.687L113.691,612.971L107.49,612.971ZM106.773,590.319C97.412,590.319 89.824,597.908 89.824,607.269C89.824,616.629 97.412,624.218 106.773,624.218C116.134,624.218 123.722,616.629 123.722,607.269C123.722,597.908 116.134,590.319 106.773,590.319" style="fill:white;fill-rule:nonzero;"/>
    </g>
</svg>
