<?xml version="1.0" encoding="UTF-8" standalone="no"?>
<!DOCTYPE svg PUBLIC "-//W3C//DTD SVG 1.1//EN" "http://www.w3.org/Graphics/SVG/1.1/DTD/svg11.dtd">
<svg width="100%" height="100%" viewBox="0 0 44 66" version="1.1" xmlns="http://www.w3.org/2000/svg" xmlns:xlink="http://www.w3.org/1999/xlink" xml:space="preserve" style="fill-rule:evenodd;clip-rule:evenodd;stroke-linejoin:round;stroke-miterlimit:1.41421;">
    <g transform="matrix(1,0,0,1,-85.0412,-445.537)">
        <path d="M128.504,467.268C128.504,479.27 106.773,510.668 106.773,510.668C106.773,512.198 85.041,479.27 85.041,467.268C85.041,455.266 94.771,445.537 106.773,445.537C118.775,445.537 128.504,455.266 128.504,467.268" style="fill:rgb(249,156,33);fill-rule:nonzero;"/>
        <path d="M107.49,472.971L107.49,476.445L105.718,476.445L105.718,472.971L99.518,472.971L102.568,467.687L101.289,467.687L104.34,462.402L103.061,462.402L106.604,456.265L110.147,462.402L108.868,462.402L111.919,467.687L110.64,467.687L113.691,472.971L107.49,472.971ZM106.773,450.319C97.412,450.319 89.824,457.908 89.824,467.269C89.824,476.629 97.412,484.218 106.773,484.218C116.134,484.218 123.722,476.629 123.722,467.269C123.722,457.908 116.134,450.319 106.773,450.319" style="fill:white;fill-rule:nonzero;"/>
    </g>
</svg>
