<?xml version="1.0" encoding="UTF-8" standalone="no"?>
<!DOCTYPE svg PUBLIC "-//W3C//DTD SVG 1.1//EN" "http://www.w3.org/Graphics/SVG/1.1/DTD/svg11.dtd">
<svg width="100%" height="100%" viewBox="0 0 44 66" version="1.1" xmlns="http://www.w3.org/2000/svg" xmlns:xlink="http://www.w3.org/1999/xlink" xml:space="preserve" style="fill-rule:evenodd;clip-rule:evenodd;stroke-linejoin:round;stroke-miterlimit:1.41421;">
    <g transform="matrix(1,0,0,1,-466.775,-305.932)">
        <path d="M510.238,327.663C510.238,339.665 488.507,371.063 488.507,371.063C488.507,372.593 466.775,339.665 466.775,327.663C466.775,315.661 476.505,305.932 488.507,305.932C500.509,305.932 510.238,315.661 510.238,327.663" style="fill:rgb(234,66,95);fill-rule:nonzero;"/>
        <path d="M492.687,331.615C492.996,332.41 493.174,333.301 493.174,334.246C493.174,337.56 483.644,337.56 483.644,334.246C483.644,333.301 483.823,332.41 484.132,331.615C482.278,332.935 477.341,332.538 477.341,330.425C477.341,327.822 479.016,325.713 481.083,325.713C483.119,325.713 484.768,327.764 484.815,330.314C485.689,329.049 486.973,328.245 488.409,328.245C489.845,328.245 491.13,329.049 492.004,330.314C492.051,327.764 493.7,325.713 495.736,325.713C497.802,325.713 499.477,327.822 499.477,330.425C499.477,332.538 494.541,332.935 492.687,331.615M481.083,319.756C482.613,319.756 483.854,320.996 483.854,322.527C483.854,324.057 482.613,325.298 481.083,325.298C479.552,325.298 478.312,324.057 478.312,322.527C478.312,320.996 479.552,319.756 481.083,319.756M488.409,320.817C490.168,320.817 491.593,322.242 491.593,324C491.593,325.758 490.168,327.184 488.409,327.184C486.651,327.184 485.226,325.758 485.226,324C485.226,322.242 486.651,320.817 488.409,320.817M495.736,319.756C497.266,319.756 498.507,320.996 498.507,322.527C498.507,324.057 497.266,325.298 495.736,325.298C494.206,325.298 492.965,324.057 492.965,322.527C492.965,320.996 494.206,319.756 495.736,319.756M488.507,310.319C479.146,310.319 471.557,317.907 471.557,327.268C471.557,336.629 479.146,344.217 488.507,344.217C497.868,344.217 505.456,336.629 505.456,327.268C505.456,317.907 497.868,310.319 488.507,310.319" style="fill:white;fill-rule:nonzero;"/>
    </g>
</svg>
