<?xml version="1.0" encoding="UTF-8" standalone="no"?>
<!DOCTYPE svg PUBLIC "-//W3C//DTD SVG 1.1//EN" "http://www.w3.org/Graphics/SVG/1.1/DTD/svg11.dtd">
<svg width="100%" height="100%" viewBox="0 0 44 66" version="1.1" xmlns="http://www.w3.org/2000/svg" xmlns:xlink="http://www.w3.org/1999/xlink" xml:space="preserve" style="fill-rule:evenodd;clip-rule:evenodd;stroke-linejoin:round;stroke-miterlimit:1.41421;">
    <g transform="matrix(1,0,0,1,-237.735,-305.537)">
        <path d="M281.198,327.268C281.198,339.27 259.467,370.668 259.467,370.668C259.467,372.198 237.735,339.27 237.735,327.268C237.735,315.266 247.465,305.537 259.467,305.537C271.469,305.537 281.198,315.266 281.198,327.268" style="fill:rgb(234,66,95);fill-rule:nonzero;"/>
        <rect x="258.346" y="324.543" width="2.268" height="4.937" style="fill:white;fill-rule:nonzero;"/>
        <path d="M260.614,336.065L260.614,331.544L258.346,331.544L258.346,336.065L251.215,336.065L255.215,318.472L258.346,318.472L258.346,322.481L260.614,322.481L260.614,318.472L263.719,318.472L267.719,336.065L260.614,336.065ZM259.48,310.319C250.119,310.319 242.531,317.908 242.531,327.269C242.531,336.629 250.119,344.218 259.48,344.218C268.841,344.218 276.429,336.629 276.429,327.269C276.429,317.908 268.841,310.319 259.48,310.319" style="fill:white;fill-rule:nonzero;"/>
    </g>
</svg>
