<?xml version="1.0" encoding="UTF-8" standalone="no"?>
<!DOCTYPE svg PUBLIC "-//W3C//DTD SVG 1.1//EN" "http://www.w3.org/Graphics/SVG/1.1/DTD/svg11.dtd">
<svg width="100%" height="100%" viewBox="0 0 44 66" version="1.1" xmlns="http://www.w3.org/2000/svg" xmlns:xlink="http://www.w3.org/1999/xlink" xml:space="preserve" style="fill-rule:evenodd;clip-rule:evenodd;stroke-linejoin:round;stroke-miterlimit:1.41421;">
    <g transform="matrix(1,0,0,1,-237.735,-585.537)">
        <path d="M281.198,607.268C281.198,619.27 259.467,650.668 259.467,650.668C259.467,652.198 237.735,619.27 237.735,607.268C237.735,595.266 247.465,585.537 259.467,585.537C271.469,585.537 281.198,595.266 281.198,607.268" style="fill:rgb(100,226,145);fill-rule:nonzero;"/>
        <rect x="258.346" y="604.543" width="2.268" height="4.937" style="fill:white;fill-rule:nonzero;"/>
        <path d="M260.614,616.065L260.614,611.544L258.346,611.544L258.346,616.065L251.215,616.065L255.215,598.472L258.346,598.472L258.346,602.481L260.614,602.481L260.614,598.472L263.719,598.472L267.719,616.065L260.614,616.065ZM259.48,590.319C250.119,590.319 242.531,597.908 242.531,607.269C242.531,616.629 250.119,624.218 259.48,624.218C268.841,624.218 276.429,616.629 276.429,607.269C276.429,597.908 268.841,590.319 259.48,590.319" style="fill:white;fill-rule:nonzero;"/>
    </g>
</svg>
