<?xml version="1.0" encoding="UTF-8" standalone="no"?>
<!DOCTYPE svg PUBLIC "-//W3C//DTD SVG 1.1//EN" "http://www.w3.org/Graphics/SVG/1.1/DTD/svg11.dtd">
<svg width="100%" height="100%" viewBox="0 0 44 66" version="1.1" xmlns="http://www.w3.org/2000/svg" xmlns:xlink="http://www.w3.org/1999/xlink" xml:space="preserve" style="fill-rule:evenodd;clip-rule:evenodd;stroke-linejoin:round;stroke-miterlimit:1.41421;">
    <g transform="matrix(1,0,0,1,-85.0414,-294.141)">
        <g transform="matrix(1,0,0,1,0.0002,-11.3964)">
            <path d="M128.504,327.268C128.504,339.27 106.773,370.668 106.773,370.668C106.773,372.198 85.041,339.27 85.041,327.268C85.041,315.266 94.771,305.537 106.773,305.537C118.775,305.537 128.504,315.266 128.504,327.268" style="fill:rgb(234,66,95);fill-rule:nonzero;"/>
        </g>
        <g transform="matrix(1,0,0,1,0.0002,-11.3964)">
            <path d="M106.773,310.319C97.412,310.319 89.824,317.908 89.824,327.269C89.824,336.629 97.412,344.218 106.773,344.218C116.134,344.218 123.722,336.629 123.722,327.269C123.722,317.908 116.134,310.319 106.773,310.319" style="fill:white;fill-rule:nonzero;"/>
        </g>
        <g transform="matrix(0.0114932,0,0,0.0114932,96.4753,305.574)">
            <path d="M1518,836L1536,1152C1538.67,1198 1511.33,1240.67 1454,1280C1396.67,1319.33 1318.33,1350.5 1219,1373.5C1119.67,1396.5 1012,1408 896,1408C780,1408 672.333,1396.5 573,1373.5C473.667,1350.5 395.333,1319.33 338,1280C280.667,1240.67 253.333,1198 256,1152L274,836L848,1017C862.667,1021.67 878.667,1024 896,1024C913.333,1024 929.333,1021.67 944,1017L1518,836ZM2048,512C2048,527.333 2040.67,537.667 2026,543L906,895C903.333,895.667 900,896 896,896C892,896 888.667,895.667 886,895L234,689C205.333,711.667 181.667,748.833 163,800.5C144.333,852.167 133,911.667 129,979C171,1003 192,1039.33 192,1088C192,1134 172.667,1169.67 134,1195L192,1628C193.333,1637.33 190.667,1645.67 184,1653C178,1660.33 170,1664 160,1664L-32,1664C-42,1664 -50,1660.33 -56,1653C-62.667,1645.67 -65.333,1637.33 -64,1628L-6,1195C-44.667,1169.67 -64,1134 -64,1088C-64,1039.33 -42.333,1002.33 1,977C8.333,839 41,729 99,647L-234,543C-248.667,537.667 -256,527.333 -256,512C-256,496.667 -248.667,486.333 -234,481L886,129C888.667,128.333 892,128 896,128C900,128 903.333,128.333 906,129L2026,481C2040.67,486.333 2048,496.667 2048,512Z" style="fill:rgb(234,66,95);fill-rule:nonzero;"/>
        </g>
    </g>
</svg>
