<?xml version="1.0" encoding="UTF-8" standalone="no"?>
<!DOCTYPE svg PUBLIC "-//W3C//DTD SVG 1.1//EN" "http://www.w3.org/Graphics/SVG/1.1/DTD/svg11.dtd">
<svg width="100%" height="100%" viewBox="0 0 44 66" version="1.1" xmlns="http://www.w3.org/2000/svg" xmlns:xlink="http://www.w3.org/1999/xlink" xml:space="preserve" style="fill-rule:evenodd;clip-rule:evenodd;stroke-linejoin:round;stroke-miterlimit:1.41421;">
    <g transform="matrix(1,0,0,1,-161.388,-445.537)">
        <path d="M204.851,467.268C204.851,479.27 183.12,510.668 183.12,510.668C183.12,512.198 161.388,479.27 161.388,467.268C161.388,455.266 171.118,445.537 183.12,445.537C195.122,445.537 204.851,455.266 204.851,467.268" style="fill:rgb(249,156,33);fill-rule:nonzero;"/>
        <path d="M181.178,466.051C181.178,465.644 180.848,465.314 180.441,465.314C180.034,465.314 179.704,465.644 179.704,466.051C179.704,466.458 180.034,466.788 180.441,466.788C180.848,466.788 181.178,466.458 181.178,466.051" style="fill:white;fill-rule:nonzero;"/>
        <path d="M185.671,470.961L185.114,468.722L181.599,468.722L181.042,470.961L185.671,470.961Z" style="fill:white;fill-rule:nonzero;"/>
        <rect x="179.704" y="460.803" width="7.304" height="2.781" style="fill:white;fill-rule:nonzero;"/>
        <path d="M180.622,472.645L180.117,474.674L186.596,474.674L186.09,472.645L180.622,472.645Z" style="fill:white;fill-rule:nonzero;"/>
        <path d="M187.341,477.669L187.015,476.358L179.697,476.358L179.371,477.669L177.687,477.669L179.914,468.722L179.716,468.722C179.046,468.722 178.502,468.179 178.502,467.509L178.502,461.721C178.502,459.041 180.675,456.868 183.356,456.868C186.036,456.868 188.209,459.041 188.209,461.721L188.209,467.509C188.209,468.179 187.666,468.722 186.996,468.722L186.797,468.722L189.025,477.669L187.341,477.669ZM183.119,450.319C173.759,450.319 166.17,457.908 166.17,467.268C166.17,476.629 173.759,484.218 183.119,484.218C192.48,484.218 200.069,476.629 200.069,467.268C200.069,457.908 192.48,450.319 183.119,450.319" style="fill:white;fill-rule:nonzero;"/>
        <path d="M186.271,465.314C185.864,465.314 185.534,465.644 185.534,466.051C185.534,466.458 185.864,466.788 186.271,466.788C186.678,466.788 187.008,466.458 187.008,466.051C187.008,465.644 186.678,465.314 186.271,465.314" style="fill:white;fill-rule:nonzero;"/>
    </g>
</svg>
