<?xml version="1.0" encoding="UTF-8" standalone="no"?>
<!DOCTYPE svg PUBLIC "-//W3C//DTD SVG 1.1//EN" "http://www.w3.org/Graphics/SVG/1.1/DTD/svg11.dtd">
<svg width="100%" height="100%" viewBox="0 0 44 66" version="1.1" xmlns="http://www.w3.org/2000/svg" xmlns:xlink="http://www.w3.org/1999/xlink" xml:space="preserve" style="fill-rule:evenodd;clip-rule:evenodd;stroke-linejoin:round;stroke-miterlimit:1.41421;">
    <g transform="matrix(1,0,0,1,-161.388,-305.537)">
        <path d="M204.851,327.268C204.851,339.27 183.12,370.668 183.12,370.668C183.12,372.198 161.388,339.27 161.388,327.268C161.388,315.266 171.118,305.537 183.12,305.537C195.122,305.537 204.851,315.266 204.851,327.268" style="fill:rgb(234,66,95);fill-rule:nonzero;"/>
        <path d="M181.178,326.051C181.178,325.644 180.848,325.314 180.441,325.314C180.034,325.314 179.704,325.644 179.704,326.051C179.704,326.458 180.034,326.788 180.441,326.788C180.848,326.788 181.178,326.458 181.178,326.051" style="fill:white;fill-rule:nonzero;"/>
        <path d="M185.671,330.961L185.114,328.722L181.599,328.722L181.042,330.961L185.671,330.961Z" style="fill:white;fill-rule:nonzero;"/>
        <rect x="179.704" y="320.803" width="7.304" height="2.781" style="fill:white;fill-rule:nonzero;"/>
        <path d="M180.622,332.645L180.117,334.674L186.596,334.674L186.09,332.645L180.622,332.645Z" style="fill:white;fill-rule:nonzero;"/>
        <path d="M187.341,337.669L187.015,336.358L179.697,336.358L179.371,337.669L177.687,337.669L179.914,328.722L179.716,328.722C179.046,328.722 178.502,328.179 178.502,327.509L178.502,321.721C178.502,319.041 180.675,316.868 183.356,316.868C186.036,316.868 188.209,319.041 188.209,321.721L188.209,327.509C188.209,328.179 187.666,328.722 186.996,328.722L186.797,328.722L189.025,337.669L187.341,337.669ZM183.119,310.319C173.759,310.319 166.17,317.908 166.17,327.268C166.17,336.629 173.759,344.218 183.119,344.218C192.48,344.218 200.069,336.629 200.069,327.268C200.069,317.908 192.48,310.319 183.119,310.319" style="fill:white;fill-rule:nonzero;"/>
        <path d="M186.271,325.314C185.864,325.314 185.534,325.644 185.534,326.051C185.534,326.458 185.864,326.788 186.271,326.788C186.678,326.788 187.008,326.458 187.008,326.051C187.008,325.644 186.678,325.314 186.271,325.314" style="fill:white;fill-rule:nonzero;"/>
    </g>
</svg>
