<?xml version="1.0" encoding="UTF-8" standalone="no"?>
<!DOCTYPE svg PUBLIC "-//W3C//DTD SVG 1.1//EN" "http://www.w3.org/Graphics/SVG/1.1/DTD/svg11.dtd">
<svg width="100%" height="100%" viewBox="0 0 44 66" version="1.1" xmlns="http://www.w3.org/2000/svg" xmlns:xlink="http://www.w3.org/1999/xlink" xml:space="preserve" style="fill-rule:evenodd;clip-rule:evenodd;stroke-linejoin:round;stroke-miterlimit:1.41421;">
    <g transform="matrix(1,0,0,1,-161.388,-585.537)">
        <path d="M204.851,607.268C204.851,619.27 183.12,650.668 183.12,650.668C183.12,652.198 161.388,619.27 161.388,607.268C161.388,595.266 171.118,585.537 183.12,585.537C195.122,585.537 204.851,595.266 204.851,607.268" style="fill:rgb(100,226,145);fill-rule:nonzero;"/>
        <path d="M181.178,606.051C181.178,605.644 180.848,605.314 180.441,605.314C180.034,605.314 179.704,605.644 179.704,606.051C179.704,606.458 180.034,606.788 180.441,606.788C180.848,606.788 181.178,606.458 181.178,606.051" style="fill:white;fill-rule:nonzero;"/>
        <path d="M185.671,610.961L185.114,608.722L181.599,608.722L181.042,610.961L185.671,610.961Z" style="fill:white;fill-rule:nonzero;"/>
        <rect x="179.704" y="600.803" width="7.304" height="2.781" style="fill:white;fill-rule:nonzero;"/>
        <path d="M180.622,612.645L180.117,614.674L186.596,614.674L186.09,612.645L180.622,612.645Z" style="fill:white;fill-rule:nonzero;"/>
        <path d="M187.341,617.669L187.015,616.358L179.697,616.358L179.371,617.669L177.687,617.669L179.914,608.722L179.716,608.722C179.046,608.722 178.502,608.179 178.502,607.509L178.502,601.721C178.502,599.041 180.675,596.868 183.356,596.868C186.036,596.868 188.209,599.041 188.209,601.721L188.209,607.509C188.209,608.179 187.666,608.722 186.996,608.722L186.797,608.722L189.025,617.669L187.341,617.669ZM183.119,590.319C173.759,590.319 166.17,597.908 166.17,607.268C166.17,616.629 173.759,624.218 183.119,624.218C192.48,624.218 200.069,616.629 200.069,607.268C200.069,597.908 192.48,590.319 183.119,590.319" style="fill:white;fill-rule:nonzero;"/>
        <path d="M186.271,605.314C185.864,605.314 185.534,605.644 185.534,606.051C185.534,606.458 185.864,606.788 186.271,606.788C186.678,606.788 187.008,606.458 187.008,606.051C187.008,605.644 186.678,605.314 186.271,605.314" style="fill:white;fill-rule:nonzero;"/>
    </g>
</svg>
