<?xml version="1.0" encoding="UTF-8" standalone="no"?>
<!DOCTYPE svg PUBLIC "-//W3C//DTD SVG 1.1//EN" "http://www.w3.org/Graphics/SVG/1.1/DTD/svg11.dtd">
<svg width="100%" height="100%" viewBox="0 0 44 66" version="1.1" xmlns="http://www.w3.org/2000/svg" xmlns:xlink="http://www.w3.org/1999/xlink" xml:space="preserve" style="fill-rule:evenodd;clip-rule:evenodd;stroke-linejoin:round;stroke-miterlimit:1.41421;">
    <g transform="matrix(1,0,0,1,-161.388,-653.89)">
        <g transform="matrix(1,0,0,1,0.0002,68.3529)">
            <path d="M204.851,607.268C204.851,619.27 183.12,650.668 183.12,650.668C183.12,652.198 161.388,619.27 161.388,607.268C161.388,595.266 171.118,585.537 183.12,585.537C195.122,585.537 204.851,595.266 204.851,607.268" style="fill:rgb(100,226,145);fill-rule:nonzero;"/>
        </g>
        <g transform="matrix(1,0,0,1,0.0002,68.3529)">
            <path d="M183.119,590.319C173.759,590.319 166.17,597.908 166.17,607.268C166.17,616.629 173.759,624.218 183.119,624.218C192.48,624.218 200.069,616.629 200.069,607.268C200.069,597.908 192.48,590.319 183.119,590.319" style="fill:white;fill-rule:nonzero;"/>
        </g>
        <g transform="matrix(0.0163992,0,0,0.0163992,168.426,661.977)">
            <path d="M1088,1248L1088,1472C1088,1489.33 1081.67,1504.33 1069,1517C1056.33,1529.67 1041.33,1536 1024,1536L768,1536C750.667,1536 735.667,1529.67 723,1517C710.333,1504.33 704,1489.33 704,1472L704,1248C704,1230.67 710.333,1215.67 723,1203C735.667,1190.33 750.667,1184 768,1184L1024,1184C1041.33,1184 1056.33,1190.33 1069,1203C1081.67,1215.67 1088,1230.67 1088,1248ZM1118,192L1090,960C1089.33,977.333 1082.5,992.333 1069.5,1005C1056.5,1017.67 1041.33,1024 1024,1024L768,1024C750.667,1024 735.5,1017.67 722.5,1005C709.5,992.333 702.667,977.333 702,960L674,192C673.333,174.667 679.167,159.667 691.5,147C703.833,134.333 718.667,128 736,128L1056,128C1073.33,128 1088.17,134.333 1100.5,147C1112.83,159.667 1118.67,174.667 1118,192Z" style="fill:rgb(100,226,145);fill-rule:nonzero;"/>
        </g>
    </g>
</svg>
