<svg id="Layer_1" data-name="Layer 1" xmlns="http://www.w3.org/2000/svg" viewBox="0 0 41.26 42.32"><title>none</title><path d="M36.61,9.54a9.74,9.74,0,0,0-2.06-1.36,1.91,1.91,0,0,0,.18-0.82,2,2,0,0,0-2-2,2,2,0,0,0-.94.23,9.51,9.51,0,0,0-1.72-1.81c-1.36-1.14-2.7-1.8-3-1.48s0.6,1.51,2,2.65a10,10,0,0,0,2,1.33,1.91,1.91,0,0,0-.16,1.75,28.48,28.48,0,0,1-7.57,5.68,6.38,6.38,0,0,0-5.22-.21c-2.8-1.2-6.12-4.2-7.64-5.65a1.91,1.91,0,0,0-.14-1.42,9.65,9.65,0,0,0,2-1.51c1.28-1.23,2.07-2.47,1.77-2.78s-1.59.45-2.86,1.68A9.62,9.62,0,0,0,9.64,5.73a2,2,0,0,0-1.1-.32,2,2,0,0,0-2,2,1.91,1.91,0,0,0,.22.88,9.68,9.68,0,0,0-2,1.5C3.53,11,2.73,12.22,3,12.52s1.59-.45,2.86-1.68A9.7,9.7,0,0,0,7.45,9,2,2,0,0,0,9.2,9.2a28.06,28.06,0,0,1,5.83,7,6,6,0,0,0-.26,5.54c-1.21,2.68-4.15,5.85-5.64,7.36A2.06,2.06,0,0,0,8.54,29a2,2,0,0,0-1,.27,9.08,9.08,0,0,0-1.74-1.92c-1.34-1.17-2.66-1.85-2.95-1.54s0.57,1.52,1.91,2.68a9.52,9.52,0,0,0,2.09,1.43,1.91,1.91,0,0,0-.3,1,2,2,0,0,0,2,2,2,2,0,0,0,1-.28,10,10,0,0,0,1.6,1.71c1.34,1.17,2.66,1.85,2.95,1.54s-0.57-1.52-1.91-2.68a10.21,10.21,0,0,0-1.9-1.34,1.91,1.91,0,0,0,.12-1.5,28.38,28.38,0,0,1,7.14-5.71,6.38,6.38,0,0,0,5.82,0C26.15,26,29.3,29,30.69,30.42a1.92,1.92,0,0,0,.16,1.47A9.91,9.91,0,0,0,29,33.39c-1.25,1.26-2,2.51-1.71,2.81s1.58-.48,2.83-1.74a9.9,9.9,0,0,0,1.48-1.82,2,2,0,0,0,1,.28,2,2,0,0,0,2-2,1.9,1.9,0,0,0-.23-0.91,9.37,9.37,0,0,0,2-1.59c1.25-1.26,2-2.51,1.71-2.81s-1.58.48-2.83,1.74a9.44,9.44,0,0,0-1.54,1.94A2,2,0,0,0,32,29.12a27.87,27.87,0,0,1-5.79-7.36,6,6,0,0,0,0-5.19c1.47-2.82,4.82-6.06,6.17-7.3a2,2,0,0,0,.46.05,2,2,0,0,0,1.16-.36,9.63,9.63,0,0,0,1.69,1.76c1.37,1.14,2.7,1.8,3,1.48S38,10.68,36.61,9.54ZM8.55,7.77A0.44,0.44,0,1,1,9,7.33,0.44,0.44,0,0,1,8.55,7.77Zm0,23.59A0.44,0.44,0,1,1,9,30.93,0.44,0.44,0,0,1,8.57,31.37Zm24-.84a0.44,0.44,0,1,1-.45.44A0.44,0.44,0,0,1,32.59,30.52ZM32.75,7.77a0.44,0.44,0,1,1,.45-0.44A0.44,0.44,0,0,1,32.75,7.77Z" style="fill:#ccc"/><text transform="translate(3.98 40.63) scale(1.02 1)" style="font-size:3.9843616485595703px;fill:#999;font-family:Helvetica">No Image<tspan x="17.27" y="0"> </tspan><tspan x="18.16" y="0">A</tspan><tspan x="20.75" y="0">vaiable</tspan></text></svg>